# xmcd
#
# Track frame offsets:
#	150
#	17161
#	59171
#	105572
#	134258
#	160624
#
# Disc length: 2882 seconds
#
# Revision: 1
# Processed by: cddbd v1.5.1PL0 Copyright (c) Steve Scherf et al.
# Submitted via: audiograbber 1.83.01
#
DISCID=4a0b4006
DTITLE=Kenny Wayne Shepard - 2000-07-03 - Milwaukee, Wis,LAZR 103 FM - Disc 2
DYEAR=1900
DGENRE=
TTITLE0=Wild Love
TTITLE1=You Got To Go W- Brian Lee
TTITLE2=The Things That I Used To Do w-Bryan Lee
TTITLE3=Blue on Black
TTITLE4=Drum Solo-Intro
TTITLE5=Voodoo Chile
EXTD=
EXTT0=
EXTT1=
EXTT2=
EXTT3=
EXTT4=
EXTT5=
PLAYORDER=
